<svg xmlns="http://www.w3.org/2000/svg" width="200" height="200" viewBox="0 0 200 200">
  <!-- Smaller yellow center -->
  <circle cx="100" cy="100" r="15" fill="yellow" />
  
  <!-- White petals with varied shapes for a naturalistic look -->
  <g fill="white">
    <g transform="rotate(0, 100, 100)">
      <ellipse cx="100" cy="60" rx="5.5" ry="20.2" />
    </g>
    <g transform="rotate(30, 100, 100)">
      <ellipse cx="100" cy="61" rx="5.2" ry="19.8" />
    </g>
    <g transform="rotate(60, 100, 100)">
      <ellipse cx="100" cy="59" rx="5.8" ry="20.5" />
    </g>
    <g transform="rotate(90, 100, 100)">
      <ellipse cx="100" cy="60" rx="5" ry="20" />
    </g>
    <g transform="rotate(120, 100, 100)">
      <ellipse cx="100" cy="60.5" rx="5.7" ry="19.5" />
    </g>
    <g transform="rotate(150, 100, 100)">
      <ellipse cx="100" cy="59.5" rx="5.3" ry="20.1" />
    </g>
    <g transform="rotate(180, 100, 100)">
      <ellipse cx="100" cy="60" rx="5.6" ry="20" />
    </g>
    <g transform="rotate(210, 100, 100)">
      <ellipse cx="100" cy="60.2" rx="5.1" ry="20.3" />
    </g>
    <g transform="rotate(240, 100, 100)">
      <ellipse cx="100" cy="59.8" rx="5.4" ry="20.4" />
    </g>
    <g transform="rotate(270, 100, 100)">
      <ellipse cx="100" cy="60" rx="5.3" ry="20.2" />
    </g>
    <g transform="rotate(300, 100, 100)">
      <ellipse cx="100" cy="60" rx="5.7" ry="20.1" />
    </g>
    <g transform="rotate(330, 100, 100)">
      <ellipse cx="100" cy="60" rx="5.2" ry="20.2" />
    </g>
  </g>
</svg>